<svg width="17" height="15" viewBox="0 0 17 15" fill="none" xmlns="http://www.w3.org/2000/svg">
<path d="M0.75 7.83333C4.74333 10.214 10.9643 10.0604 15.7256 7.83333M3.05769 3.25H13.4423C14.75 3.25 15.75 4.20805 15.75 5.46088V11.8725C15.75 13.1253 14.75 14.0833 13.4423 14.0833H3.05769C1.75 14.0833 0.75 13.1253 0.75 11.8725V5.46088C0.75 4.20805 1.75 3.25 3.05769 3.25ZM6.60443 0.75H9.89557C10.8238 0.75 11.5833 1.5 11.5833 2.41667V3.25H4.91667V2.41667C4.91667 1.5 5.67616 0.75 6.60443 0.75ZM9.08333 5.75C9.08333 6.21024 8.71024 6.58333 8.25 6.58333C7.78976 6.58333 7.41667 6.21024 7.41667 5.75C7.41667 5.28976 7.78976 4.91667 8.25 4.91667C8.71024 4.91667 9.08333 5.28976 9.08333 5.75Z" stroke="white" stroke-width="1.5" stroke-miterlimit="10" stroke-linecap="round"/>
</svg>
