<svg width="14" height="14" viewBox="0 0 14 14" fill="none" xmlns="http://www.w3.org/2000/svg">
<path d="M5.37741 10.4722H8.6225M6.99993 0.75V2M11.4194 2.58058L10.4375 3.56246M13.25 6.99993H12M2 6.99993H0.75M3.56247 3.5625L2.58055 2.58058M4.54473 9.45528C3.18874 8.09924 3.18874 5.90076 4.54473 4.54478C5.90069 3.1888 8.09924 3.1888 9.45521 4.54478C10.8112 5.90076 10.8112 8.09924 9.45521 9.45528L9.07528 9.83521C8.63576 10.2747 8.38882 10.8708 8.38882 11.4924V11.8611C8.38882 12.6282 7.76701 13.25 6.99993 13.25C6.23292 13.25 5.61108 12.6282 5.61108 11.8611V11.4924C5.61108 10.8708 5.36417 10.2747 4.92466 9.83521L4.54473 9.45528Z" stroke="#089D93" stroke-width="1.5" stroke-linecap="round"/>
</svg>
