<svg width="24" height="24" viewBox="0 0 24 24" fill="none" xmlns="http://www.w3.org/2000/svg">
<g clip-path="url(#clip0_3_11)">
<path d="M1.2 3.6C1.2 2.27452 2.27452 1.2 3.6 1.2H20.4C21.7255 1.2 22.8 2.27452 22.8 3.6C22.8 4.92548 21.7255 6 20.4 6H3.6C2.27452 6 1.2 4.92548 1.2 3.6Z" stroke="#089D93" stroke-width="1.5" stroke-linecap="round" stroke-linejoin="round"/>
<path d="M1.2 12C1.2 10.6745 2.27452 9.6 3.6 9.6H20.4C21.7255 9.6 22.8 10.6745 22.8 12C22.8 13.3255 21.7255 14.4 20.4 14.4H3.6C2.27452 14.4 1.2 13.3255 1.2 12Z" stroke="#089D93" stroke-width="1.5" stroke-linecap="round" stroke-linejoin="round"/>
<path d="M1.2 20.4C1.2 19.0745 2.27452 18 3.6 18H20.4C21.7255 18 22.8 19.0745 22.8 20.4C22.8 21.7255 21.7255 22.8 20.4 22.8H3.6C2.27452 22.8 1.2 21.7255 1.2 20.4Z" stroke="#089D93" stroke-width="1.5" stroke-linecap="round" stroke-linejoin="round"/>
</g>
<defs>
<clipPath id="clip0_3_11">
<rect width="24" height="24" fill="white"/>
</clipPath>
</defs>
</svg>
