<svg width="14" height="11" viewBox="0 0 14 11" fill="none" xmlns="http://www.w3.org/2000/svg">
<path d="M0.75 3.25V7.5C0.75 8.20007 0.75 8.5501 0.886242 8.81749C1.00608 9.05269 1.19731 9.24392 1.43251 9.36376C1.6999 9.5 2.04993 9.5 2.75 9.5H11.25C11.9501 9.5 12.3001 9.5 12.5675 9.36376C12.8027 9.24392 12.9939 9.05269 13.1138 8.81749C13.25 8.5501 13.25 8.20007 13.25 7.5V3.25M0.75 3.25V2.75C0.75 2.04993 0.75 1.6999 0.886242 1.43251C1.00608 1.19731 1.19731 1.00608 1.43251 0.886242C1.6999 0.75 2.04993 0.75 2.75 0.75H11.25C11.9501 0.75 12.3001 0.75 12.5675 0.886242C12.8027 1.00608 12.9939 1.19731 13.1138 1.43251C13.25 1.6999 13.25 2.04993 13.25 2.75V3.25M0.75 3.25H13.25M3.25 6.375H6.375" stroke="#089D93" stroke-width="1.5" stroke-linecap="round" stroke-linejoin="round"/>
</svg>
