<svg width="15" height="18" viewBox="0 0 15 18" fill="none" xmlns="http://www.w3.org/2000/svg">
<path d="M3.7402 10.7023C3.37255 5.10791 6.06863 1.84451 7.41667 0.912109C8.76471 1.84451 11.4608 5.10791 11.0931 10.7023M3.7402 10.7023C2.88235 11.1685 0.75 12.5555 0.75 15.9121L4.00621 14.2866M3.7402 10.7023C3.81333 11.8152 3.91099 13.2387 4.00621 14.2866M4.00621 14.2866C4.04084 14.6677 4.07514 14.9991 4.10783 15.2478L7.41667 14.7583L10.7255 15.2478C10.7582 14.9991 10.7925 14.6677 10.8271 14.2866M11.0931 10.7023C11.951 11.1685 14.0833 12.5555 14.0833 15.9121L10.8271 14.2866M11.0931 10.7023C11.02 11.8152 10.9223 13.2387 10.8271 14.2866M8.51961 7.55546C8.51961 8.13478 8.0258 8.60441 7.41667 8.60441C6.80753 8.60441 6.31372 8.13478 6.31372 7.55546C6.31372 6.97614 6.80753 6.50651 7.41667 6.50651C8.0258 6.50651 8.51961 6.97614 8.51961 7.55546Z" stroke="white" stroke-width="1.5" stroke-linecap="round"/>
</svg>
